# xmcd
# 
# Track frame offsets:
#     150
#     44917
#     95637
#     122032
#     158997
#     188655
# 
# Disc length: 3161
# 
# Revision: 3
# Processed by: cddbd v1.5.2PL0 Copyright (c) Steve Scherf et al.
# Submitted via: fre:ac v1.0.31
# 
DISCID=510c5706
DTITLE=Miles Davis - The Man With The Horn
DYEAR=1981
DGENRE=Jazz
TTITLE0=Fat Time
TTITLE1=Back Seat Betty
TTITLE2=Shout
TTITLE3=Aida
TTITLE4=The Man With The Horn
TTITLE5=Ursula
EXTD=
EXTT0=
EXTT1=
EXTT2=
EXTT3=
EXTT4=
EXTT5=
PLAYORDER=
